<?xml version="1.0" standalone="no"?><!DOCTYPE svg PUBLIC "-//W3C//DTD SVG 1.1//EN" "http://www.w3.org/Graphics/SVG/1.1/DTD/svg11.dtd"><svg t="1572966384850" class="icon" viewBox="0 0 1024 1024" version="1.1" xmlns="http://www.w3.org/2000/svg" p-id="1663" xmlns:xlink="http://www.w3.org/1999/xlink" width="200" height="200"><defs><style type="text/css"></style></defs><path d="M512 1024a512 512 0 1 1 512-512 512 512 0 0 1-512 512zM64 512a446.016 446.016 0 0 0 100.256 282.24A500.224 500.224 0 0 1 224 736c55.168-48-63.008-179.488-96-256s103.584-103.968 160-160c41.344-41.088-12.224-124.8-43.808-166.848A446.688 446.688 0 0 0 64 512zM512 64c-8.96 0-17.696 0.832-26.528 1.344A55.904 55.904 0 0 0 480 96c4.608 36.672 73.088 47.104 96 96s43.616 103.904 96 96c45.504-6.88 108.48-98.336 124.256-122.24A446.208 446.208 0 0 0 512 64z m345.184 162.464A29.472 29.472 0 0 1 832 256c-72.448 26.592-111.328 102.816-192 96s-80.8-113.984-160-160a125.184 125.184 0 0 1-64.96-117.184 445.888 445.888 0 0 0-115.616 43.36C325.248 168.768 386.016 291.36 384 320c-2.56 36.32-135.52 78.368-160 128s93.504 198.112 96 256c1.824 42.848-69.056 109.792-106.08 141.76A447.712 447.712 0 0 0 857.184 226.464z" fill="#1E59E4" p-id="1664"></path><path d="M768 736c-58.752 32-131.2 140.576-224 160s-77.216-90.976-64-192 10.144-88.8-32-128 24.864-174.016 128-192 276.64 95.648 288 160a213.472 213.472 0 0 1-96 192z m31.328-177.504c-7.584-43.904-123.808-121.408-192.896-109.12s-113.952 82.4-85.728 109.12 51.712 18.4 42.88 87.328-40.768 166.048 21.408 152.8 110.688-87.296 150.048-109.12a146.528 146.528 0 0 0 64.288-131.008z" fill="#FF5A06" p-id="1665"></path></svg>